<svg width="145" height="22" viewBox="0 0 145 22" fill="none" xmlns="http://www.w3.org/2000/svg">
<path d="M2.99415 16.6889H0.330237V5.06667H2.99415V16.6889ZM3.28036 1.66667C3.28036 2.17037 3.11891 2.57037 2.79601 2.86667C2.47311 3.16296 2.0915 3.31111 1.65119 3.31111C1.19619 3.31111 0.807247 3.16296 0.484348 2.86667C0.161449 2.57037 0 2.17037 0 1.66667C0 1.14815 0.161449 0.74074 0.484348 0.444444C0.807247 0.148148 1.19619 0 1.65119 0C2.0915 0 2.47311 0.148148 2.79601 0.444444C3.11891 0.74074 3.28036 1.14815 3.28036 1.66667Z" transform="translate(46 3)" fill="white"/>
<path d="M6.39267 5.44444C6.90638 5.2963 7.57419 5.15555 8.39611 5.02222C9.21804 4.88889 10.128 4.82222 11.1261 4.82222C12.0654 4.82222 12.8506 4.95555 13.4818 5.22222C14.1129 5.47407 14.6119 5.83704 14.9788 6.31111C15.3605 6.77037 15.6246 7.33333 15.7714 8C15.9329 8.65185 16.0136 9.37037 16.0136 10.1556V16.6889H13.3497V10.5778C13.3497 9.95555 13.3056 9.42963 13.2176 9C13.1442 8.55555 13.0121 8.2 12.8213 7.93333C12.6452 7.65185 12.3957 7.45185 12.0728 7.33333C11.7645 7.2 11.3829 7.13333 10.9279 7.13333C10.5904 7.13333 10.2381 7.15555 9.87117 7.2C9.50424 7.24444 9.23271 7.28148 9.05659 7.31111V16.6889H6.39267V5.44444Z" transform="translate(46 3)" fill="white"/>
<path d="M23.7183 1.13333C25.9345 1.13333 27.6297 1.54074 28.8039 2.35556C29.9928 3.17037 30.5872 4.44444 30.5872 6.17778C30.5872 7.08148 30.4258 7.85926 30.1029 8.51111C29.7946 9.14815 29.3396 9.67407 28.7379 10.0889C28.1361 10.4889 27.4022 10.7852 26.5363 10.9778C25.6703 11.1704 24.6796 11.2667 23.5642 11.2667H22.1772V16.6889H19.4032V1.51111C20.049 1.36296 20.7608 1.26667 21.5387 1.22222C22.3313 1.16296 23.0578 1.13333 23.7183 1.13333ZM23.9164 3.55555C23.2119 3.55555 22.6322 3.57778 22.1772 3.62222V8.86667H23.5201C24.8558 8.86667 25.8832 8.68148 26.6023 8.31111C27.3215 7.92593 27.6811 7.20741 27.6811 6.15555C27.6811 5.65185 27.5857 5.22963 27.3949 4.88889C27.2041 4.54815 26.9399 4.28148 26.6023 4.08889C26.2648 3.8963 25.8611 3.76296 25.3915 3.68889C24.9365 3.6 24.4448 3.55555 23.9164 3.55555Z" transform="translate(46 3)" fill="white"/>
<path d="M39.5487 7.48889C39.3285 7.41481 39.0203 7.34074 38.624 7.26667C38.2424 7.17778 37.7948 7.13333 37.281 7.13333C36.9875 7.13333 36.6719 7.16296 36.3344 7.22222C36.0115 7.28148 35.784 7.33333 35.6519 7.37778V16.6889H32.988V5.62222C33.5017 5.42963 34.1401 5.25185 34.9033 5.08889C35.6812 4.91111 36.5398 4.82222 37.4792 4.82222C37.6553 4.82222 37.8608 4.83704 38.0956 4.86667C38.3305 4.88148 38.5653 4.91111 38.8001 4.95556C39.035 4.98518 39.2625 5.02963 39.4826 5.08889C39.7028 5.13333 39.8789 5.17778 40.011 5.22222L39.5487 7.48889Z" transform="translate(46 3)" fill="white"/>
<path d="M52.2809 10.8667C52.2809 11.7852 52.1488 12.6222 51.8846 13.3778C51.6204 14.1333 51.2461 14.7778 50.7618 15.3111C50.2774 15.8444 49.6903 16.2593 49.0005 16.5556C48.3254 16.8518 47.5768 17 46.7549 17C45.933 17 45.1844 16.8518 44.5093 16.5556C43.8341 16.2593 43.2544 15.8444 42.77 15.3111C42.2857 14.7778 41.9041 14.1333 41.6252 13.3778C41.361 12.6222 41.2289 11.7852 41.2289 10.8667C41.2289 9.94815 41.361 9.11852 41.6252 8.37778C41.9041 7.62222 42.2857 6.97778 42.77 6.44444C43.2691 5.91111 43.8562 5.5037 44.5313 5.22222C45.2065 4.92592 45.9477 4.77778 46.7549 4.77778C47.5622 4.77778 48.3034 4.92592 48.9785 5.22222C49.6683 5.5037 50.2554 5.91111 50.7398 6.44444C51.2241 6.97778 51.5984 7.62222 51.8626 8.37778C52.1414 9.11852 52.2809 9.94815 52.2809 10.8667ZM49.5509 10.8667C49.5509 9.71111 49.3014 8.8 48.8024 8.13333C48.318 7.45185 47.6355 7.11111 46.7549 7.11111C45.8743 7.11111 45.1844 7.45185 44.6854 8.13333C44.2011 8.8 43.9589 9.71111 43.9589 10.8667C43.9589 12.037 44.2011 12.963 44.6854 13.6444C45.1844 14.3259 45.8743 14.6667 46.7549 14.6667C47.6355 14.6667 48.318 14.3259 48.8024 13.6444C49.3014 12.963 49.5509 12.037 49.5509 10.8667Z" transform="translate(46 3)" fill="white"/>
<path d="M57.7174 16.6889C56.9836 15.163 56.2277 13.4148 55.4498 11.4444C54.6866 9.45926 53.9894 7.33333 53.3583 5.06667H56.1983C56.3598 5.71852 56.5432 6.42222 56.7487 7.17778C56.9689 7.91852 57.1964 8.66667 57.4312 9.42222C57.6807 10.163 57.9302 10.8889 58.1797 11.6C58.4439 12.2963 58.6861 12.9259 58.9063 13.4889C59.1264 12.9259 59.3613 12.2963 59.6108 11.6C59.8603 10.8889 60.1025 10.163 60.3373 9.42222C60.5868 8.66667 60.8216 7.91852 61.0418 7.17778C61.262 6.42222 61.4528 5.71852 61.6142 5.06667H64.3662C63.7351 7.33333 63.0306 9.45926 62.2527 11.4444C61.4895 13.4148 60.7409 15.163 60.0071 16.6889H57.7174Z" transform="translate(46 3)" fill="white"/>
<path d="M69.0416 16.6889H66.3777V5.06667H69.0416V16.6889ZM69.3278 1.66667C69.3278 2.17037 69.1664 2.57037 68.8435 2.86667C68.5206 3.16296 68.139 3.31111 67.6987 3.31111C67.2437 3.31111 66.8547 3.16296 66.5318 2.86667C66.2089 2.57037 66.0475 2.17037 66.0475 1.66667C66.0475 1.14815 66.2089 0.74074 66.5318 0.444444C66.8547 0.148148 67.2437 0 67.6987 0C68.139 0 68.5206 0.148148 68.8435 0.444444C69.1664 0.74074 69.3278 1.14815 69.3278 1.66667Z" transform="translate(46 3)" fill="white"/>
<path d="M75.3242 14.7556C76.0287 14.7556 76.5424 14.6741 76.8653 14.5111C77.1882 14.3333 77.3497 14.037 77.3497 13.6222C77.3497 13.237 77.1735 12.9185 76.8213 12.6667C76.4837 12.4148 75.9186 12.1407 75.1261 11.8444C74.6417 11.6667 74.1941 11.4815 73.7831 11.2889C73.3868 11.0815 73.0419 10.8444 72.7484 10.5778C72.4548 10.3111 72.22 9.99259 72.0439 9.62222C71.8824 9.23704 71.8017 8.77037 71.8017 8.22222C71.8017 7.15555 72.1906 6.31852 72.9685 5.71111C73.7464 5.08889 74.8032 4.77778 76.1388 4.77778C76.814 4.77778 77.4598 4.84444 78.0762 4.97778C78.6926 5.0963 79.155 5.21481 79.4632 5.33333L78.9788 7.51111C78.6853 7.37778 78.311 7.25926 77.856 7.15555C77.401 7.03704 76.8727 6.97778 76.2709 6.97778C75.7278 6.97778 75.2875 7.07407 74.9499 7.26667C74.6124 7.44444 74.4436 7.72592 74.4436 8.11111C74.4436 8.3037 74.4729 8.47407 74.5316 8.62222C74.605 8.77037 74.7225 8.91111 74.8839 9.04444C75.0453 9.16296 75.2582 9.28889 75.5224 9.42222C75.7865 9.54074 76.1095 9.66667 76.4911 9.8C77.1222 10.037 77.6579 10.2741 78.0982 10.5111C78.5385 10.7333 78.8981 10.9926 79.177 11.2889C79.4705 11.5704 79.6833 11.8963 79.8154 12.2667C79.9475 12.637 80.0136 13.0815 80.0136 13.6C80.0136 14.7111 79.6026 15.5556 78.7807 16.1333C77.9735 16.6963 76.8139 16.9778 75.3022 16.9778C74.2895 16.9778 73.4749 16.8889 72.8584 16.7111C72.242 16.5481 71.809 16.4148 71.5595 16.3111L72.0219 14.0667C72.4181 14.2296 72.8878 14.3852 73.4309 14.5333C73.9886 14.6815 74.6197 14.7556 75.3242 14.7556Z" transform="translate(46 3)" fill="white"/>
<path d="M85.188 16.6889H82.5241V5.06667H85.188V16.6889ZM85.4742 1.66667C85.4742 2.17037 85.3128 2.57037 84.9899 2.86667C84.667 3.16296 84.2853 3.31111 83.845 3.31111C83.39 3.31111 83.0011 3.16296 82.6782 2.86667C82.3553 2.57037 82.1938 2.17037 82.1938 1.66667C82.1938 1.14815 82.3553 0.74074 82.6782 0.444444C83.0011 0.148148 83.39 0 83.845 0C84.2853 0 84.667 0.148148 84.9899 0.444444C85.3128 0.74074 85.4742 1.14815 85.4742 1.66667Z" transform="translate(46 3)" fill="white"/>
<path d="M99 10.8667C99 11.7852 98.8679 12.6222 98.6037 13.3778C98.3395 14.1333 97.9653 14.7778 97.4809 15.3111C96.9966 15.8444 96.4095 16.2593 95.7196 16.5556C95.0445 16.8518 94.296 17 93.474 17C92.6521 17 91.9036 16.8518 91.2284 16.5556C90.5533 16.2593 89.9735 15.8444 89.4892 15.3111C89.0048 14.7778 88.6232 14.1333 88.3443 13.3778C88.0801 12.6222 87.9481 11.7852 87.9481 10.8667C87.9481 9.94815 88.0801 9.11852 88.3443 8.37778C88.6232 7.62222 89.0048 6.97778 89.4892 6.44444C89.9882 5.91111 90.5753 5.5037 91.2504 5.22222C91.9256 4.92592 92.6668 4.77778 93.474 4.77778C94.2813 4.77778 95.0225 4.92592 95.6976 5.22222C96.3875 5.5037 96.9745 5.91111 97.4589 6.44444C97.9432 6.97778 98.3175 7.62222 98.5817 8.37778C98.8606 9.11852 99 9.94815 99 10.8667ZM96.27 10.8667C96.27 9.71111 96.0205 8.8 95.5215 8.13333C95.0371 7.45185 94.3547 7.11111 93.474 7.11111C92.5934 7.11111 91.9036 7.45185 91.4045 8.13333C90.9202 8.8 90.678 9.71111 90.678 10.8667C90.678 12.037 90.9202 12.963 91.4045 13.6444C91.9036 14.3259 92.5934 14.6667 93.474 14.6667C94.3547 14.6667 95.0371 14.3259 95.5215 13.6444C96.0205 12.963 96.27 12.037 96.27 10.8667Z" transform="translate(46 3)" fill="white"/>
<path d="M25.4355 4.06137L25.422 6.15982H25.2986L25.3392 6.1937C24.1547 8.34293 22.7573 9.39239 21.0625 9.39239C18.9014 9.39239 16.6085 7.70003 15.032 6.38003C17.1796 4.46773 20.9983 1.23543 23.4417 1.74313C25.4676 2.1662 25.4608 3.68907 25.4355 4.06137ZM24.6582 19.6813C24.42 19.9521 23.9857 20.3077 22.982 20.3077H20.1129C19.6263 17.4138 17.4482 15.2308 14.3679 15.2308C11.2808 15.2308 9.11121 17.4138 8.62627 20.3077H3.99984C2.99446 20.3077 2.55853 19.9521 2.32028 19.6813C1.60553 18.869 1.69677 17.4647 1.70184 17.4139L1.70521 17.3462V17.2953V4.16301V4.07831L1.69677 3.99403C1.69677 3.9771 1.54469 2.20005 3.79538 1.74313C3.97111 1.70928 4.15699 1.69231 4.34792 1.69231C6.77266 1.69231 10.1098 4.33244 13.0516 6.90475C14.7211 8.36013 17.8267 11.0847 21.0625 11.0847C22.6661 11.0847 24.0804 10.4414 25.2919 9.15524V17.6676L25.2969 17.7184C25.3105 17.9046 25.3443 18.9029 24.6582 19.6813ZM10.3244 20.3077C10.7232 18.5138 12.0445 16.9231 14.3679 16.9231C16.6946 16.9231 18.0143 18.5138 18.4148 20.3077H10.3244ZM23.7627 0.101638C20.8327 -0.49067 17.2421 2.2002 13.7681 5.2802C10.5492 2.50481 7.21029 0 4.34792 0C4.04209 0 3.74301 0.0339288 3.45745 0.084698C0.476798 0.693929 -0.0960165 3.06301 0.012125 4.16301V17.2953C-0.011531 17.6338 -0.0892594 19.4955 1.04792 20.7985C1.75421 21.5939 2.74777 22 3.99984 22H22.982C24.2341 22 25.226 21.5939 25.9306 20.7985C27.0661 19.4955 27.0103 17.9383 26.985 17.5998V16.9231H27.0424L27.0576 4.14607C27.1658 3.01223 26.6166 0.693945 23.7627 0.101638Z" fill="#4C84FF"/>
</svg>
