<svg width="15" height="11" viewBox="0 0 15 11" fill="none" xmlns="http://www.w3.org/2000/svg">
<path fill-rule="evenodd" clip-rule="evenodd" d="M4.89623 8.83689C4.88723 8.84689 4.89119 8.86095 4.88219 8.87095C4.69519 9.05795 4.39219 9.05795 4.20519 8.87095L4.19421 8.85996C4.18521 8.85196 4.17022 8.8559 4.16222 8.8469C4.15222 8.8369 4.15619 8.82394 4.14819 8.81394L0.14025 4.80588C-0.04675 4.61888 -0.04675 4.31491 0.14025 4.12791C0.32725 3.94091 0.630252 3.94091 0.817252 4.12791L4.4862 7.79697L12.1333 0.15C12.3333 -0.05 12.6583 -0.05 12.8583 0.15C13.0583 0.35 13.0583 0.674976 12.8583 0.874976L4.89623 8.83689Z" transform="translate(1 0.98291)" fill="#29CC97" stroke="#29CC97"/>
</svg>
