<svg width="134" height="115" viewBox="0 0 134 115" fill="none" xmlns="http://www.w3.org/2000/svg">
<path d="M0 0H25.5556" transform="translate(122.389 30.6667) scale(-1 1)" stroke="#2A2D43" stroke-width="2" stroke-linecap="round"/>
<rect x="1" y="1" width="85.334" height="88.9609" rx="2" transform="translate(16.3333)" fill="#FFF3CC" stroke="#2A2D43" stroke-width="2"/>
<path d="M0 0H3.83333" transform="translate(132.611 30.6667) scale(-1 1)" stroke="#2A2D43" stroke-width="2" stroke-linecap="round"/>
<rect x="1" y="1" width="85.334" height="88.9609" rx="2" transform="translate(27.3884 9.98364)" fill="white" stroke="#2A2D43" stroke-width="2"/>
<rect width="22.1099" height="49.9176" transform="translate(40.6543 24.4041)" fill="#F6DA81"/>
<rect width="31.5502" height="3.89331" transform="translate(69.3975 24.4041)" fill="#FFF3CC"/>
<rect width="31.5502" height="3.89331" transform="translate(69.3975 36.0845)" fill="#FFF3CC"/>
<rect width="31.5502" height="3.89331" transform="translate(69.3975 47.7639)" fill="#FFF3CC"/>
<rect width="31.5502" height="3.89331" transform="translate(69.3975 59.8574)" fill="#FFF3CC"/>
<rect width="31.5502" height="3.89331" transform="translate(69.3975 71.5378)" fill="#FFF3CC"/>
<circle cx="21.7222" cy="21.7222" r="20.7222" transform="translate(85.3335 71.5557)" fill="white" stroke="#2C3049" stroke-width="2"/>
<circle cx="15.3333" cy="15.3333" r="15.3333" transform="translate(91.7222 77.9443)" fill="#F93048"/>
<path d="M0 24.2778L24.2778 0" transform="translate(95.5557 81.7778)" stroke="white" stroke-width="3"/>
<path d="M0 24.2778L24.2778 0" transform="translate(119.833 81.7778) scale(-1 1)" stroke="white" stroke-width="3"/>
<path d="M0 0H12.7778" transform="translate(11.2222 75.3889)" stroke="#2A2D43" stroke-width="2" stroke-linecap="round"/>
<path d="M0 0H3.83333" transform="translate(1 75.3889)" stroke="#2A2D43" stroke-width="2" stroke-linecap="round"/>
</svg>
