<svg width="89" height="121" viewBox="0 0 89 121" fill="none" xmlns="http://www.w3.org/2000/svg">
<path d="M1 25.6819C1 18.9865 4.71064 12.8395 10.8808 8.32936C17.0502 3.81979 25.622 1 35.1346 1C44.6472 1 53.2189 3.81979 59.3884 8.32936C65.5585 12.8395 69.2691 18.9865 69.2691 25.6819V33.7948H1V25.6819Z" transform="translate(0 77.4215)" fill="#FFF3CC" stroke="#2C3049" stroke-width="2"/>
<rect x="1" y="1" width="15.5673" height="22.8534" rx="7.78364" transform="translate(26.3164 66.2754)" fill="white" stroke="#2C3049" stroke-width="2"/>
<path d="M10.4392 7.45603C10.4392 9.31416 9.86029 10.9596 8.9705 12.1196C8.08148 13.2785 6.92332 13.9121 5.71958 13.9121C4.51585 13.9121 3.35769 13.2785 2.46866 12.1196C1.57887 10.9596 1 9.31416 1 7.45603C1 5.59789 1.57887 3.95241 2.46866 2.79247C3.35769 1.63355 4.51585 1 5.71958 1C6.92332 1 8.08148 1.63355 8.9705 2.79247C9.86029 3.95241 10.4392 5.59789 10.4392 7.45603Z" transform="translate(3.29395 40.826) rotate(-16.614)" fill="white" stroke="#2C3049" stroke-width="2"/>
<path d="M10.4392 7.45603C10.4392 9.31416 9.86029 10.9596 8.9705 12.1196C8.08148 13.2785 6.92332 13.9121 5.71958 13.9121C4.51585 13.9121 3.35769 13.2785 2.46866 12.1196C1.57887 10.9596 1 9.31416 1 7.45603C1 5.59789 1.57887 3.95241 2.46866 2.79247C3.35769 1.63355 4.51585 1 5.71958 1C6.92332 1 8.08148 1.63355 8.9705 2.79247C9.86029 3.95241 10.4392 5.59789 10.4392 7.45603Z" transform="translate(54.7026 37.5554) rotate(16.3443)" fill="white" stroke="#2C3049" stroke-width="2"/>
<path d="M1.40753 23.2579L1.40339 23.1821L1.38784 23.1077C0.599884 19.3397 0.811426 13.7328 3.9212 9.14059C6.98883 4.61059 13.0266 0.852324 24.3467 1.00445C35.605 1.15575 41.6032 5.60027 44.8183 10.02C46.4416 12.2515 47.3783 14.5092 47.9084 16.2733C48.1731 17.1545 48.3351 17.908 48.4304 18.4669C48.478 18.7464 48.5086 18.9752 48.5271 19.145C48.5363 19.2299 48.5423 19.2981 48.5459 19.3491C48.5469 19.3643 48.5478 19.3775 48.5484 19.3888L46.4932 38.3353C44.2169 53.6981 32.8751 59.2164 24.3601 59.2164C12.2215 59.2164 3.91773 49.7922 2.23094 38.3624L1.40753 23.2579Z" transform="translate(10.2471 16.7513)" fill="white" stroke="#2C3049" stroke-width="2"/>
<path d="M31.7843 0.841767C51.47 5.59915 53.661 26.9625 49.0993 43.0728C47.6133 35.572 39.6537 22.6225 25.1489 23.2259C10.6441 23.8294 3.5133 37.4209 3.42119 44.7901C-4.83635 19.2556 3.4469 15.1621 11.4643 15.4875C11.4643 14.0474 11.4643 -4.06891 31.7843 0.841767Z" transform="translate(8.65625 1)" fill="#8A8DA3" stroke="#2C3049" stroke-width="2"/>
<path d="M0 0H8.78364" transform="translate(30.7427 63.7495)" stroke="#2C3049" stroke-width="2" stroke-linecap="round"/>
<circle cx="18.6652" cy="18.6652" r="17.6652" transform="translate(51.604 83.6696)" fill="white" stroke="#2C3049" stroke-width="2"/>
<circle cx="13.1755" cy="13.1755" r="13.1755" transform="translate(57.0938 89.1593)" fill="#F93048"/>
<path d="M0 20.8612L20.8611 0" transform="translate(60.3877 92.4531)" stroke="white" stroke-width="3"/>
<path d="M0 20.8612L20.8611 0" transform="translate(81.2485 92.4531) scale(-1 1)" stroke="white" stroke-width="3"/>
</svg>
