<svg width="482" height="245" viewBox="0 0 482 245" fill="none" xmlns="http://www.w3.org/2000/svg">
<path opacity="0.3" d="M11.4805 18.952C11.4805 19.656 11.3119 20.3233 10.9745 20.954C10.6372 21.57 10.1239 22.0833 9.43452 22.494C8.75986 22.9047 7.93119 23.1247 6.94852 23.154V24.914H6.09052V23.132C4.77052 23.0293 3.69986 22.604 2.87852 21.856C2.05719 21.108 1.61719 20.184 1.55852 19.084H3.20852C3.26719 19.7587 3.53852 20.36 4.02252 20.888C4.50652 21.416 5.19586 21.7387 6.09052 21.856V15.784C5.10786 15.52 4.30852 15.256 3.69252 14.992C3.09119 14.728 2.57786 14.3247 2.15252 13.782C1.74186 13.2247 1.53652 12.4767 1.53652 11.538C1.53652 10.7753 1.71986 10.0933 2.08652 9.492C2.45319 8.876 2.98119 8.392 3.67052 8.04C4.35986 7.67333 5.16652 7.47533 6.09052 7.446V5.598H6.94852V7.468C8.18052 7.57067 9.17052 7.95933 9.91852 8.634C10.6665 9.30867 11.0992 10.1593 11.2165 11.186H9.58852C9.50052 10.6433 9.22919 10.1373 8.77452 9.668C8.31986 9.184 7.71119 8.88333 6.94852 8.766V14.64C7.93119 14.904 8.72319 15.168 9.32452 15.432C9.92586 15.696 10.4319 16.114 10.8425 16.686C11.2679 17.2433 11.4805 17.9987 11.4805 18.952ZM3.09852 11.472C3.09852 12.308 3.35519 12.9387 3.86852 13.364C4.38186 13.7747 5.12252 14.1193 6.09052 14.398V8.722C5.18119 8.75133 4.45519 9.00067 3.91252 9.47C3.36986 9.93933 3.09852 10.6067 3.09852 11.472ZM6.94852 21.9C7.90186 21.8413 8.63519 21.548 9.14852 21.02C9.67652 20.4773 9.94052 19.81 9.94052 19.018C9.94052 18.1673 9.68386 17.5293 9.17052 17.104C8.65719 16.6787 7.91652 16.3193 6.94852 16.026V21.9Z" transform="translate(259 60)" fill="white"/>
<path opacity="0.3" d="M15.6098 26.48C15.6098 27.44 15.3798 28.35 14.9198 29.21C14.4598 30.05 13.7598 30.75 12.8198 31.31C11.8998 31.87 10.7698 32.17 9.4298 32.21V34.61H8.2598V32.18C6.4598 32.04 4.9998 31.46 3.8798 30.44C2.7598 29.42 2.1598 28.16 2.0798 26.66H4.3298C4.4098 27.58 4.7798 28.4 5.4398 29.12C6.0998 29.84 7.0398 30.28 8.2598 30.44V22.16C6.9198 21.8 5.8298 21.44 4.9898 21.08C4.1698 20.72 3.4698 20.17 2.8898 19.43C2.3298 18.67 2.0498 17.65 2.0498 16.37C2.0498 15.33 2.2998 14.4 2.7998 13.58C3.2998 12.74 4.0198 12.08 4.9598 11.6C5.8998 11.1 6.9998 10.83 8.2598 10.79V8.27H9.4298V10.82C11.1098 10.96 12.4598 11.49 13.4798 12.41C14.4998 13.33 15.0898 14.49 15.2498 15.89H13.0298C12.9098 15.15 12.5398 14.46 11.9198 13.82C11.2998 13.16 10.4698 12.75 9.4298 12.59V20.6C10.7698 20.96 11.8498 21.32 12.6698 21.68C13.4898 22.04 14.1798 22.61 14.7398 23.39C15.3198 24.15 15.6098 25.18 15.6098 26.48ZM4.1798 16.28C4.1798 17.42 4.5298 18.28 5.2298 18.86C5.9298 19.42 6.9398 19.89 8.2598 20.27V12.53C7.0198 12.57 6.0298 12.91 5.2898 13.55C4.5498 14.19 4.1798 15.1 4.1798 16.28ZM9.4298 30.5C10.7298 30.42 11.7298 30.02 12.4298 29.3C13.1498 28.56 13.5098 27.65 13.5098 26.57C13.5098 25.41 13.1598 24.54 12.4598 23.96C11.7598 23.38 10.7498 22.89 9.4298 22.49V30.5Z" transform="translate(286)" fill="white"/>
<path opacity="0.3" d="M8.0549 13.24C8.0549 13.72 7.9399 14.175 7.7099 14.605C7.4799 15.025 7.1299 15.375 6.6599 15.655C6.1999 15.935 5.6349 16.085 4.9649 16.105V17.305H4.3799V16.09C3.4799 16.02 2.7499 15.73 2.1899 15.22C1.6299 14.71 1.3299 14.08 1.2899 13.33H2.4149C2.4549 13.79 2.6399 14.2 2.9699 14.56C3.2999 14.92 3.7699 15.14 4.3799 15.22V11.08C3.7099 10.9 3.1649 10.72 2.7449 10.54C2.3349 10.36 1.9849 10.085 1.6949 9.715C1.4149 9.335 1.2749 8.825 1.2749 8.185C1.2749 7.665 1.3999 7.2 1.6499 6.79C1.8999 6.37 2.2599 6.04 2.7299 5.8C3.1999 5.55 3.7499 5.415 4.3799 5.395V4.135H4.9649V5.41C5.8049 5.48 6.4799 5.745 6.9899 6.205C7.4999 6.665 7.7949 7.245 7.8749 7.945H6.7649C6.7049 7.575 6.5199 7.23 6.2099 6.91C5.8999 6.58 5.4849 6.375 4.9649 6.295V10.3C5.6349 10.48 6.1749 10.66 6.5849 10.84C6.9949 11.02 7.3399 11.305 7.6199 11.695C7.9099 12.075 8.0549 12.59 8.0549 13.24ZM2.3399 8.14C2.3399 8.71 2.5149 9.14 2.8649 9.43C3.2149 9.71 3.7199 9.945 4.3799 10.135V6.265C3.7599 6.285 3.2649 6.455 2.8949 6.775C2.5249 7.095 2.3399 7.55 2.3399 8.14ZM4.9649 15.25C5.6149 15.21 6.1149 15.01 6.4649 14.65C6.8249 14.28 7.0049 13.825 7.0049 13.285C7.0049 12.705 6.8299 12.27 6.4799 11.98C6.1299 11.69 5.6249 11.445 4.9649 11.245V15.25Z" transform="translate(336 34)" fill="white"/>
<path opacity="0.3" d="M0 0H482" transform="translate(0 244)" stroke="#838E9C"/>
<path opacity="0.15" d="M0 0H482" transform="translate(0 206)" stroke="#838E9C"/>
<path opacity="0.15" d="M0 0H482" transform="translate(0 168)" stroke="#838E9C"/>
<path opacity="0.15" d="M0 0H482" transform="translate(0 130)" stroke="#838E9C"/>
<path opacity="0.15" d="M0 0H482" transform="translate(0 93)" stroke="#838E9C"/>
<path opacity="0.15" d="M0 0H482" transform="translate(0 55)" stroke="#838E9C"/>
<rect opacity="0.6" width="13" height="174" transform="translate(69 69)" fill="#CCCEE0"/>
<rect opacity="0.6" width="13.1013" height="114" transform="translate(88.6519 129)" fill="#6F7499"/>
<rect opacity="0.6" width="13" height="88" transform="translate(49 155)" fill="#4A4E6D"/>
<rect opacity="0.6" width="13" height="112" transform="translate(175 131)" fill="#CCCEE0"/>
<rect opacity="0.6" width="13" height="84" transform="translate(194 159)" fill="#6F7499"/>
<rect opacity="0.6" width="13" height="84" transform="translate(321 159)" fill="#6F7499"/>
<rect opacity="0.6" width="13.1013" height="46" transform="translate(281.278 197)" fill="#4A4E6D"/>
<rect opacity="0.6" width="13.1013" height="46" transform="translate(155.278 197)" fill="#4A4E6D"/>
<rect opacity="0.6" width="13" height="53" transform="translate(428 190)" fill="#6F7499"/>
<rect opacity="0.6" width="13.1013" height="143" transform="translate(300.93 100)" fill="#CCCEE0"/>
<rect opacity="0.6" width="13.1013" height="16" transform="translate(388.607 227)" fill="#4A4E6D"/>
<rect opacity="0.6" width="13.1013" height="110" transform="translate(408.26 133)" fill="#CCCEE0"/>
<ellipse cx="43.9635" cy="43.8453" rx="43.9635" ry="43.8453" transform="translate(247.157 103.349) scale(1.00015 0.999853) rotate(-51.3963)" fill="white"/>
<ellipse cx="37.2355" cy="37.1329" rx="37.2355" ry="37.1329" transform="translate(253.826 100.51) rotate(-51.3982)" fill="white"/>
<path d="M71.8387 36.3214C71.8387 55.8264 55.9834 71.6429 36.4193 71.6429C16.8552 71.6429 1 55.8264 1 36.3214C1 16.8165 16.8552 1 36.4193 1C55.9834 1 71.8387 16.8165 71.8387 36.3214Z" transform="translate(303.307 45.3569) scale(-1.00015 0.999853) rotate(51.3963)" fill="#29CC97" stroke="#29CC97" stroke-width="2"/>
<path fill-rule="evenodd" clip-rule="evenodd" d="M10.4485 18.8058C10.4293 18.8271 10.4377 18.857 10.4185 18.8783C10.0195 19.2762 9.37287 19.2762 8.97381 18.8783L8.95037 18.8549C8.93116 18.8379 8.89919 18.8462 8.88212 18.8271C8.86078 18.8058 8.86923 18.7782 8.85216 18.757L0.299291 10.2274C-0.0997638 9.82945 -0.0997638 9.18255 0.299291 8.7846C0.698346 8.38664 1.34495 8.38664 1.744 8.7846L9.57347 16.5927L25.8922 0.319215C26.319 -0.106405 27.0125 -0.106405 27.4393 0.319215C27.8661 0.744835 27.8661 1.43642 27.4393 1.86204L10.4485 18.8058Z" transform="translate(295.395 87.7095) rotate(-0.685448)" fill="white" stroke="white" stroke-width="5"/>
<rect width="7.96173" height="17.8238" transform="translate(339.273 126.797) rotate(-51.3982)" fill="white"/>
<rect width="11.9426" height="29.8565" rx="2" transform="translate(346.7 135.543) rotate(-51.3982)" fill="white"/>
</svg>
