<svg width="227" height="226" viewBox="0 0 227 226" fill="none" xmlns="http://www.w3.org/2000/svg">
<path d="M26.3072 25.39C26.5312 26.622 27.0352 27.574 27.8192 28.246C28.6312 28.89 29.7092 29.212 31.0532 29.212C32.7892 29.212 34.0492 28.498 34.8332 27.07C35.6172 25.614 36.0092 23.178 36.0092 19.762C35.3652 20.658 34.4552 21.358 33.2792 21.862C32.1312 22.366 30.8852 22.618 29.5412 22.618C27.7212 22.618 26.0832 22.254 24.6272 21.526C23.1992 20.77 22.0652 19.664 21.2252 18.208C20.4132 16.724 20.0072 14.946 20.0072 12.874C20.0072 9.766 20.9172 7.288 22.7372 5.44C24.5852 3.592 27.1192 2.668 30.3392 2.668C34.3152 2.668 37.1152 3.956 38.7392 6.532C40.3632 9.08 41.1752 12.916 41.1752 18.04C41.1752 21.68 40.8672 24.662 40.2512 26.986C39.6352 29.282 38.5712 31.032 37.0592 32.236C35.5472 33.44 33.4752 34.042 30.8432 34.042C28.7432 34.042 26.9652 33.65 25.5092 32.866C24.0532 32.054 22.9332 31.004 22.1492 29.716C21.3932 28.4 20.9592 26.958 20.8472 25.39H26.3072ZM30.7592 17.83C32.2152 17.83 33.3632 17.382 34.2032 16.486C35.0432 15.59 35.4632 14.386 35.4632 12.874C35.4632 11.222 35.0152 9.948 34.1192 9.052C33.2512 8.128 32.0612 7.666 30.5492 7.666C29.0372 7.666 27.8332 8.142 26.9372 9.094C26.0692 10.018 25.6352 11.25 25.6352 12.79C25.6352 14.274 26.0552 15.492 26.8952 16.444C27.7632 17.368 29.0512 17.83 30.7592 17.83ZM58.3942 3.466C50.8342 3.466 47.0542 8.534 47.0542 18.67C47.0542 28.834 50.8342 33.916 58.3942 33.916C65.9542 33.916 69.7342 28.834 69.7342 18.67C69.7342 8.534 65.9542 3.466 58.3942 3.466ZM58.3942 8.926C59.9622 8.926 61.1382 9.36 61.9222 10.228C62.7342 11.096 63.2662 12.23 63.5182 13.63C63.7982 15.002 63.9382 16.682 63.9382 18.67C63.9382 20.658 63.7982 22.352 63.5182 23.752C63.2662 25.152 62.7342 26.286 61.9222 27.154C61.1382 28.022 59.9622 28.456 58.3942 28.456C56.8262 28.456 55.6362 28.022 54.8242 27.154C54.0402 26.286 53.5082 25.152 53.2282 23.752C52.9762 22.352 52.8502 20.658 52.8502 18.67C52.8502 16.682 52.9762 15.002 53.2282 13.63C53.5082 12.23 54.0402 11.096 54.8242 10.228C55.6362 9.36 56.8262 8.926 58.3942 8.926ZM74.0325 21.9C74.0325 20.8 74.3552 19.942 75.0005 19.326C75.6605 18.6953 76.5039 18.38 77.5305 18.38C78.5572 18.38 79.3932 18.6953 80.0385 19.326C80.6985 19.942 81.0285 20.8 81.0285 21.9C81.0285 23 80.6985 23.8653 80.0385 24.496C79.3932 25.1267 78.5572 25.442 77.5305 25.442C76.5039 25.442 75.6605 25.1267 75.0005 24.496C74.3552 23.8653 74.0325 23 74.0325 21.9ZM87.4745 18.6L78.8285 34H75.8365L84.4605 18.6H87.4745ZM77.5085 20.228C76.7019 20.228 76.2985 20.7853 76.2985 21.9C76.2985 22.472 76.4012 22.8973 76.6065 23.176C76.8265 23.4547 77.1272 23.594 77.5085 23.594C77.9045 23.594 78.2125 23.4547 78.4325 23.176C78.6525 22.8973 78.7625 22.472 78.7625 21.9C78.7625 20.7853 78.3445 20.228 77.5085 20.228ZM82.3045 30.678C82.3045 29.578 82.6272 28.72 83.2725 28.104C83.9325 27.488 84.7759 27.18 85.8025 27.18C86.8292 27.18 87.6652 27.488 88.3105 28.104C88.9559 28.72 89.2785 29.578 89.2785 30.678C89.2785 31.7927 88.9559 32.6653 88.3105 33.296C87.6652 33.912 86.8292 34.22 85.8025 34.22C84.7759 34.22 83.9325 33.912 83.2725 33.296C82.6272 32.6653 82.3045 31.7927 82.3045 30.678ZM85.7805 29.006C85.3992 29.006 85.0985 29.1453 84.8785 29.424C84.6585 29.7027 84.5485 30.1207 84.5485 30.678C84.5485 31.25 84.6585 31.6753 84.8785 31.954C85.0985 32.2327 85.3992 32.372 85.7805 32.372C86.1619 32.372 86.4625 32.2327 86.6825 31.954C86.9025 31.6753 87.0125 31.25 87.0125 30.678C87.0125 30.1207 86.9025 29.7027 86.6825 29.424C86.4625 29.1453 86.1619 29.006 85.7805 29.006ZM13.9836 66.154C12.913 66.154 11.945 65.9707 11.0796 65.604C10.229 65.2373 9.5543 64.7093 9.05564 64.02C8.55697 63.3307 8.3003 62.5167 8.28564 61.578H11.5856C11.6296 62.2233 11.8496 62.7367 12.2456 63.118C12.6563 63.4993 13.2136 63.69 13.9176 63.69C14.6363 63.69 15.201 63.514 15.6116 63.162C16.0223 62.81 16.2276 62.3407 16.2276 61.754C16.2276 61.2993 16.0883 60.9253 15.8096 60.632C15.531 60.3387 15.179 60.1113 14.7536 59.95C14.343 59.774 13.771 59.5833 13.0376 59.378C12.0403 59.0847 11.2263 58.7987 10.5956 58.52C9.97964 58.2267 9.4443 57.794 8.98964 57.222C8.54964 56.6353 8.32964 55.858 8.32964 54.89C8.32964 53.9807 8.55697 53.1887 9.01164 52.514C9.4663 51.8393 10.1043 51.326 10.9256 50.974C11.747 50.6073 12.6856 50.424 13.7416 50.424C15.3256 50.424 16.609 50.8127 17.5916 51.59C18.589 52.3527 19.139 53.4233 19.2416 54.802H15.8536C15.8243 54.23 15.597 53.7753 15.1716 53.438C14.761 53.086 14.211 52.91 13.5216 52.91C12.9203 52.91 12.4363 53.0713 12.0696 53.394C11.7176 53.702 11.5416 54.164 11.5416 54.78C11.5416 55.1907 11.6736 55.5353 11.9376 55.814C12.2163 56.078 12.5536 56.298 12.9496 56.474C13.3603 56.6353 13.9323 56.826 14.6656 57.046C15.663 57.3393 16.477 57.6327 17.1076 57.926C17.7383 58.2193 18.281 58.6593 18.7356 59.246C19.1903 59.8327 19.4176 60.6027 19.4176 61.556C19.4176 62.3773 19.205 63.14 18.7796 63.844C18.3543 64.548 17.731 65.1127 16.9096 65.538C16.0883 65.9487 15.113 66.154 13.9836 66.154ZM21.9559 59.862C21.9559 58.63 22.1979 57.5373 22.6819 56.584C23.1806 55.6307 23.8479 54.8973 24.6839 54.384C25.5346 53.8707 26.4806 53.614 27.5219 53.614C28.4312 53.614 29.2232 53.7973 29.8979 54.164C30.5872 54.5307 31.1372 54.9927 31.5479 55.55V53.812H34.6499V66H31.5479V64.218C31.1519 64.79 30.6019 65.2667 29.8979 65.648C29.2086 66.0147 28.4092 66.198 27.4999 66.198C26.4732 66.198 25.5346 65.934 24.6839 65.406C23.8479 64.878 23.1806 64.1373 22.6819 63.184C22.1979 62.216 21.9559 61.1087 21.9559 59.862ZM31.5479 59.906C31.5479 59.158 31.4012 58.52 31.1079 57.992C30.8146 57.4493 30.4186 57.0387 29.9199 56.76C29.4212 56.4667 28.8859 56.32 28.3139 56.32C27.7419 56.32 27.2139 56.4593 26.7299 56.738C26.2459 57.0167 25.8499 57.4273 25.5419 57.97C25.2486 58.498 25.1019 59.1287 25.1019 59.862C25.1019 60.5953 25.2486 61.2407 25.5419 61.798C25.8499 62.3407 26.2459 62.7587 26.7299 63.052C27.2286 63.3453 27.7566 63.492 28.3139 63.492C28.8859 63.492 29.4212 63.3527 29.9199 63.074C30.4186 62.7807 30.8146 62.37 31.1079 61.842C31.4012 61.2993 31.5479 60.654 31.5479 59.906ZM43.4 63.162L46.48 53.812H49.78L45.292 66H41.508L37.02 53.812H40.32L43.4 63.162ZM53.71 52.36C53.1673 52.36 52.7126 52.1913 52.346 51.854C51.994 51.502 51.818 51.0693 51.818 50.556C51.818 50.0427 51.994 49.6173 52.346 49.28C52.7126 48.928 53.1673 48.752 53.71 48.752C54.2526 48.752 54.7 48.928 55.052 49.28C55.4186 49.6173 55.602 50.0427 55.602 50.556C55.602 51.0693 55.4186 51.502 55.052 51.854C54.7 52.1913 54.2526 52.36 53.71 52.36ZM55.228 53.812V66H52.148V53.812H55.228ZM65.685 53.636C67.137 53.636 68.3103 54.098 69.205 55.022C70.0997 55.9313 70.547 57.2073 70.547 58.85V66H67.467V59.268C67.467 58.3 67.225 57.5593 66.741 57.046C66.257 56.518 65.597 56.254 64.761 56.254C63.9103 56.254 63.2357 56.518 62.737 57.046C62.253 57.5593 62.011 58.3 62.011 59.268V66H58.931V53.812H62.011V55.33C62.4217 54.802 62.9423 54.3913 63.573 54.098C64.2183 53.79 64.9223 53.636 65.685 53.636ZM78.9099 53.614C79.8193 53.614 80.6186 53.7973 81.3079 54.164C81.9973 54.516 82.5399 54.978 82.9359 55.55V53.812H86.0379V66.088C86.0379 67.2173 85.8106 68.222 85.3559 69.102C84.9013 69.9967 84.2193 70.7007 83.3099 71.214C82.4006 71.742 81.3006 72.006 80.0099 72.006C78.2793 72.006 76.8566 71.6027 75.7419 70.796C74.6419 69.9893 74.0186 68.8893 73.8719 67.496H76.9299C77.0913 68.0533 77.4359 68.4933 77.9639 68.816C78.5066 69.1533 79.1593 69.322 79.9219 69.322C80.8166 69.322 81.5426 69.0507 82.0999 68.508C82.6573 67.98 82.9359 67.1733 82.9359 66.088V64.196C82.5399 64.768 81.9899 65.2447 81.2859 65.626C80.5966 66.0073 79.8046 66.198 78.9099 66.198C77.8833 66.198 76.9446 65.934 76.0939 65.406C75.2433 64.878 74.5686 64.1373 74.0699 63.184C73.5859 62.216 73.3439 61.1087 73.3439 59.862C73.3439 58.63 73.5859 57.5373 74.0699 56.584C74.5686 55.6307 75.2359 54.8973 76.0719 54.384C76.9226 53.8707 77.8686 53.614 78.9099 53.614ZM82.9359 59.906C82.9359 59.158 82.7893 58.52 82.4959 57.992C82.2026 57.4493 81.8066 57.0387 81.3079 56.76C80.8093 56.4667 80.2739 56.32 79.7019 56.32C79.1299 56.32 78.6019 56.4593 78.1179 56.738C77.6339 57.0167 77.2379 57.4273 76.9299 57.97C76.6366 58.498 76.4899 59.1287 76.4899 59.862C76.4899 60.5953 76.6366 61.2407 76.9299 61.798C77.2379 62.3407 77.6339 62.7587 78.1179 63.052C78.6166 63.3453 79.1446 63.492 79.7019 63.492C80.2739 63.492 80.8093 63.3527 81.3079 63.074C81.8066 62.7807 82.2026 62.37 82.4959 61.842C82.7893 61.2993 82.9359 60.654 82.9359 59.906ZM94.3481 66.198C93.3508 66.198 92.4561 66.022 91.6641 65.67C90.8868 65.3033 90.2634 64.812 89.7941 64.196C89.3394 63.58 89.0901 62.898 89.0461 62.15H92.1481C92.2068 62.6633 92.4341 63.0813 92.8301 63.404C93.2261 63.712 93.7321 63.866 94.3481 63.866C94.9348 63.866 95.3894 63.7487 95.7121 63.514C96.0494 63.2647 96.2181 62.9347 96.2181 62.524C96.2181 62.128 96.0128 61.8273 95.6021 61.622C95.2061 61.4167 94.5608 61.204 93.6661 60.984C92.7714 60.764 92.0381 60.544 91.4661 60.324C90.8941 60.0893 90.4028 59.73 89.9921 59.246C89.5814 58.762 89.3761 58.124 89.3761 57.332C89.3761 56.6427 89.5594 56.0193 89.9261 55.462C90.3074 54.89 90.8574 54.4427 91.5761 54.12C92.3094 53.7827 93.1674 53.614 94.1501 53.614C95.6021 53.614 96.7608 53.9807 97.6261 54.714C98.4914 55.4327 98.9681 56.408 99.0561 57.64H96.1081C96.0641 57.1267 95.8588 56.716 95.4921 56.408C95.1401 56.1 94.6634 55.946 94.0621 55.946C93.5048 55.946 93.0721 56.0633 92.7641 56.298C92.4708 56.518 92.3241 56.826 92.3241 57.222C92.3241 57.6327 92.5294 57.948 92.9401 58.168C93.3508 58.3733 93.9888 58.586 94.8541 58.806C95.7341 59.026 96.4601 59.2533 97.0321 59.488C97.6041 59.7227 98.0954 60.082 98.5061 60.566C98.9168 61.0353 99.1221 61.6733 99.1221 62.48C99.1221 63.184 98.9314 63.822 98.5501 64.394C98.1688 64.9513 97.6188 65.3913 96.9001 65.714C96.1814 66.0367 95.3308 66.198 94.3481 66.198Z" transform="translate(63.6816 79)" fill="#29CC97"/>
<path fill-rule="evenodd" clip-rule="evenodd" d="M100.826 200C155.83 200 200.775 155.228 200.775 100.437C200.775 44.7715 155.83 0 100.826 0C44.9449 0 0 44.7715 0 100.437C0 155.228 44.9449 200 100.826 200Z" transform="translate(13 13)" stroke="#3D405B" stroke-width="25"/>
<path d="M100.826 0C155.83 0 200.775 44.7715 200.775 100.437C200.775 155.228 155.83 200 100.826 200C44.9449 200 0 155.228 0 100.437C0 66.3878 16.8159 36.4146 42.6646 18.2704" transform="translate(13 13)" stroke="#29CC97" stroke-width="15" stroke-linecap="round"/>
</svg>
