<svg width="371" height="245" viewBox="0 0 371 245" fill="none" xmlns="http://www.w3.org/2000/svg">
<path d="M1.97584 5.11533C2.41405 2.17578 4.93822 0 7.91027 0H17.6066C20.4964 0 22.9757 2.05995 23.5051 4.90087L24.692 11.2704C25.3797 14.961 22.5476 18.3695 18.7935 18.3695H6.96074C3.29472 18.3695 0.485787 15.1108 1.02632 11.4849L1.97584 5.11533Z" transform="translate(134.631 81.3037)" fill="#3D405B"/>
<path d="M0.66429 3.17215C0.945472 1.34708 2.51599 0 4.36259 0H6.42228C8.21605 0 9.75749 1.27291 10.0967 3.03431C10.5412 5.34234 8.77272 7.48387 6.42228 7.48387H4.36259C2.06889 7.48387 0.315029 5.43911 0.66429 3.17215Z" transform="translate(142.162 77.9019)" fill="#3D405B"/>
<rect width="3.03719" height="84.0289" transform="translate(145.785)" fill="#3D405B"/>
<path d="M0 0L10.356 10.4147" transform="translate(110.084 111.661)" stroke="#FEC400" stroke-width="3" stroke-linecap="round" stroke-linejoin="round"/>
<path d="M0 10.4147L10.0602 0" transform="translate(174.587 111.364)" stroke="#FEC400" stroke-width="3" stroke-linecap="round" stroke-linejoin="round"/>
<path d="M0 0L10.356 10.4147" transform="translate(110.084 184.862) scale(1 -1)" stroke="#FEC400" stroke-width="3" stroke-linecap="round" stroke-linejoin="round"/>
<path d="M0 10.4147L10.0602 0" transform="translate(174.587 185.159) scale(1 -1)" stroke="#FEC400" stroke-width="3" stroke-linecap="round" stroke-linejoin="round"/>
<path d="M0 0H14.4985" transform="translate(184.944 148.261)" stroke="#FEC400" stroke-width="3" stroke-linecap="round" stroke-linejoin="round"/>
<path d="M0 0H14.5806" transform="translate(147.662 184.862) rotate(90)" stroke="#FEC400" stroke-width="3" stroke-linecap="round" stroke-linejoin="round"/>
<path d="M0 0H14.4985" transform="translate(96.1777 148.261)" stroke="#FEC400" stroke-width="3" stroke-linecap="round" stroke-linejoin="round"/>
<path d="M29.0955 76.2054C45.1645 76.2054 58.1911 63.2597 58.1911 47.2904C58.1911 39.8299 56.1373 34.7039 50.6798 27.9004C48.049 23.4781 43.4933 13.0517 42.4452 7.14966C41.4183 1.36667 39.3645 -0.107436 37.3107 0.00595593H33.5454H24.9879H21.2226C16.5673 0.00595593 16.8578 3.17121 15.7458 7.14966C12.3228 19.396 9.45743 26.1995 7.51129 27.9004C3.0807 34.0236 0 39.8299 0 47.2904C0 63.2597 13.0265 76.2054 29.0955 76.2054Z" transform="translate(118.201 101.028)" fill="#FEC400"/>
<path d="M20.3874 31.36C20.3874 32.64 20.0674 33.8667 19.4274 35.04C18.7874 36.2133 17.8274 37.1867 16.5474 37.96C15.294 38.7067 13.7874 39.1333 12.0274 39.24V42.48H10.1074V39.24C7.62736 39.0267 5.61402 38.2533 4.06736 36.92C2.54735 35.5867 1.77402 33.8667 1.74735 31.76H5.62736C5.73402 32.9067 6.16069 33.8933 6.90735 34.72C7.65402 35.5467 8.72069 36.0533 10.1074 36.24V26.28C8.24069 25.7733 6.76069 25.2933 5.66735 24.84C4.57402 24.3867 3.64069 23.6533 2.86735 22.64C2.09402 21.6267 1.70735 20.2533 1.70735 18.52C1.70735 16.3333 2.46735 14.5333 3.98735 13.12C5.53402 11.7067 7.57402 10.9333 10.1074 10.8V7.48H12.0274V10.8C14.3474 10.9867 16.2007 11.7067 17.5874 12.96C19.0007 14.2133 19.814 15.8667 20.0274 17.92H16.1474C16.014 16.9867 15.5874 16.1333 14.8674 15.36C14.174 14.5867 13.2274 14.0933 12.0274 13.88V23.6C13.8674 24.08 15.334 24.5467 16.4274 25C17.5207 25.4533 18.454 26.1867 19.2274 27.2C20.0007 28.2133 20.3874 29.6 20.3874 31.36ZM5.42735 18.32C5.42735 19.6533 5.82735 20.6667 6.62735 21.36C7.42735 22.0533 8.58736 22.6267 10.1074 23.08V13.8C8.66736 13.88 7.52069 14.3067 6.66735 15.08C5.84069 15.8533 5.42735 16.9333 5.42735 18.32ZM12.0274 36.28C13.494 36.1467 14.6407 35.64 15.4674 34.76C16.3207 33.88 16.7474 32.8133 16.7474 31.56C16.7474 30.2267 16.334 29.2133 15.5074 28.52C14.7074 27.8 13.5474 27.2267 12.0274 26.8V36.28Z" transform="translate(136.673 120.463)" fill="white"/>
<g opacity="0.4">
<path d="M1.18115 5.10215C1.62513 2.16857 4.1466 0 7.11359 0H11.1436C14.0273 0 16.503 2.05133 17.0391 4.8847L17.2106 5.79121C17.9096 9.48646 15.0759 12.9065 11.3151 12.9065H6.97639C3.305 12.9065 0.494562 9.63872 1.04395 6.00867L1.18115 5.10215Z" transform="translate(64.3647 57.1245)" fill="#3D405B"/>
<path d="M0.474776 2.22282C0.674922 0.943222 1.77715 0 3.0723 0H4.6204C5.87791 0 6.95936 0.890479 7.20065 2.12462C7.51812 3.74834 6.27486 5.25821 4.6204 5.25821H3.0723C1.4583 5.25821 0.225357 3.81743 0.474776 2.22282Z" transform="translate(69.7368 54.7344)" fill="#3D405B"/>
<rect width="3.03719" height="58.719" transform="translate(71.8804)" fill="#3D405B"/>
<path opacity="0.4" d="M20.7541 53.5423C32.2163 53.5423 41.5083 44.4466 41.5083 33.2265C41.5083 27.9847 40.0433 24.3832 36.1504 19.603C34.2738 16.4958 31.0242 9.17022 30.2766 5.02338C29.5441 0.960231 28.0791 -0.0754852 26.6141 0.00418467H23.9283H17.8241H15.1383C11.8176 0.00418467 12.0249 2.22811 11.2316 5.02338C8.78999 13.6277 6.74608 18.4079 5.35788 19.603C2.1975 23.9051 0 27.9847 0 33.2265C0 44.4466 9.29194 53.5423 20.7541 53.5423Z" transform="translate(52.6445 70.9824)" fill="#8B8EA1"/>
<path opacity="0.3" d="M9.75716 0C9.26883 10.8351 6.876 32.7443 1.21134 33.7003C-1.71876 34.1949 0.194877 27.0081 12.1988 27.0081C23.9189 27.0081 28.3137 34.6564 23.9188 33.7003C19.2016 32.6742 16.5938 11.7115 15.8613 0" transform="translate(60.7119 70.9868)" stroke="white" stroke-width="2"/>
</g>
<path d="M1.18115 5.10215C1.62513 2.16857 4.1466 0 7.11359 0H11.1436C14.0273 0 16.503 2.05133 17.0391 4.8847L17.2106 5.79121C17.9096 9.48646 15.0759 12.9065 11.3151 12.9065H6.97639C3.305 12.9065 0.494562 9.63872 1.04395 6.00867L1.18115 5.10215Z" transform="translate(230.398 177.6)" fill="#3D405B"/>
<path d="M0.474776 2.22282C0.674922 0.943222 1.77715 0 3.0723 0H4.6204C5.87791 0 6.95936 0.890479 7.20065 2.12462C7.51812 3.74834 6.27486 5.25821 4.6204 5.25821H3.0723C1.4583 5.25821 0.225357 3.81743 0.474776 2.22282Z" transform="translate(235.77 175.209)" fill="#3D405B"/>
<rect width="3.03719" height="179.194" transform="translate(237.913)" fill="#3D405B"/>
<path opacity="0.4" d="M20.7541 53.5423C32.2163 53.5423 41.5083 44.4466 41.5083 33.2265C41.5083 27.9847 40.0433 24.3832 36.1504 19.603C34.2738 16.4958 31.0242 9.17022 30.2766 5.02338C29.5441 0.960231 28.0791 -0.0754852 26.6141 0.00418467H23.9283H17.8241H15.1383C11.8176 0.00418467 12.0249 2.22811 11.2316 5.02338C8.78999 13.6277 6.74608 18.4079 5.35788 19.603C2.1975 23.9051 0 27.9847 0 33.2265C0 44.4466 9.29194 53.5423 20.7541 53.5423Z" transform="translate(218.678 191.458)" fill="#8B8EA1"/>
<path opacity="0.3" d="M9.75716 0C9.26883 10.8351 6.876 32.7443 1.21134 33.7003C-1.71876 34.1949 0.194877 27.0081 12.1988 27.0081C23.9189 27.0081 28.3137 34.6564 23.9188 33.7003C19.2016 32.6742 16.5938 11.7115 15.8613 0" transform="translate(226.745 191.461)" stroke="white" stroke-width="2"/>
<path d="M1.18115 5.10215C1.62513 2.16857 4.1466 0 7.11359 0H11.1436C14.0273 0 16.503 2.05133 17.0391 4.8847L17.2106 5.79121C17.9096 9.48646 15.0759 12.9065 11.3151 12.9065H6.97639C3.305 12.9065 0.494562 9.63872 1.04395 6.00867L1.18115 5.10215Z" transform="translate(277.98 87.4961)" fill="#3D405B"/>
<path d="M0.474776 2.22282C0.674922 0.943222 1.77715 0 3.0723 0H4.6204C5.87791 0 6.95936 0.890479 7.20065 2.12462C7.51812 3.74834 6.27486 5.25821 4.6204 5.25821H3.0723C1.4583 5.25821 0.225357 3.81743 0.474776 2.22282Z" transform="translate(283.353 85.106)" fill="#3D405B"/>
<rect width="3.03719" height="89.0909" transform="translate(285.496)" fill="#3D405B"/>
<path opacity="0.4" d="M20.7541 53.5423C32.2163 53.5423 41.5083 44.4466 41.5083 33.2265C41.5083 27.9847 40.0433 24.3832 36.1504 19.603C34.2738 16.4958 31.0242 9.17022 30.2766 5.02338C29.5441 0.960231 28.0791 -0.0754852 26.6141 0.00418467H23.9283H17.8241H15.1383C11.8176 0.00418467 12.0249 2.22811 11.2316 5.02338C8.78999 13.6277 6.74608 18.4079 5.35788 19.603C2.1975 23.9051 0 27.9847 0 33.2265C0 44.4466 9.29194 53.5423 20.7541 53.5423Z" transform="translate(266.26 101.354)" fill="#8B8EA1"/>
<path opacity="0.3" d="M9.75716 0C9.26883 10.8351 6.876 32.7443 1.21134 33.7003C-1.71876 34.1949 0.194877 27.0081 12.1988 27.0081C23.9189 27.0081 28.3137 34.6564 23.9188 33.7003C19.2016 32.6742 16.5938 11.7115 15.8613 0" transform="translate(274.327 101.359)" stroke="white" stroke-width="2"/>
<g opacity="0.4">
<path d="M1.18115 5.10215C1.62513 2.16857 4.1466 0 7.11359 0H11.1436C14.0273 0 16.503 2.05133 17.0391 4.8847L17.2106 5.79121C17.9096 9.48646 15.0759 12.9065 11.3151 12.9065H6.97639C3.305 12.9065 0.494562 9.63872 1.04395 6.00867L1.18115 5.10215Z" transform="translate(340.75 133.054)" fill="#3D405B"/>
<path d="M0.474776 2.22282C0.674922 0.943222 1.77715 0 3.0723 0H4.6204C5.87791 0 6.95936 0.890479 7.20065 2.12462C7.51812 3.74834 6.27486 5.25821 4.6204 5.25821H3.0723C1.4583 5.25821 0.225357 3.81743 0.474776 2.22282Z" transform="translate(346.122 130.664)" fill="#3D405B"/>
<rect width="3.03719" height="134.649" transform="translate(348.265)" fill="#3D405B"/>
<path opacity="0.4" d="M20.7541 53.5423C32.2163 53.5423 41.5083 44.4466 41.5083 33.2265C41.5083 27.9847 40.0433 24.3832 36.1504 19.603C34.2738 16.4958 31.0242 9.17022 30.2766 5.02338C29.5441 0.960231 28.0791 -0.0754852 26.6141 0.00418467H23.9283H17.8241H15.1383C11.8176 0.00418467 12.0249 2.22811 11.2316 5.02338C8.78999 13.6277 6.74608 18.4079 5.35788 19.603C2.1975 23.9051 0 27.9847 0 33.2265C0 44.4466 9.29194 53.5423 20.7541 53.5423Z" transform="translate(329.029 146.912)" fill="#8B8EA1"/>
<path opacity="0.3" d="M9.75716 0C9.26883 10.8351 6.876 32.7443 1.21134 33.7003C-1.71876 34.1949 0.194877 27.0081 12.1988 27.0081C23.9189 27.0081 28.3137 34.6564 23.9188 33.7003C19.2016 32.6742 16.5938 11.7115 15.8613 0" transform="translate(337.096 146.916)" stroke="white" stroke-width="2"/>
</g>
<path d="M1.18115 5.10215C1.62513 2.16857 4.1466 0 7.11359 0H11.1436C14.0273 0 16.503 2.05133 17.0391 4.8847L17.2106 5.79121C17.9096 9.48646 15.0759 12.9065 11.3151 12.9065H6.97639C3.305 12.9065 0.494562 9.63872 1.04395 6.00867L1.18115 5.10215Z" transform="translate(11.7202 117.868)" fill="#3D405B"/>
<path d="M0.474776 2.22282C0.674922 0.943222 1.77715 0 3.0723 0H4.6204C5.87791 0 6.95936 0.890479 7.20065 2.12462C7.51812 3.74834 6.27486 5.25821 4.6204 5.25821H3.0723C1.4583 5.25821 0.225357 3.81743 0.474776 2.22282Z" transform="translate(17.0923 115.478)" fill="#3D405B"/>
<rect width="3.03719" height="119.463" transform="translate(19.2354)" fill="#3D405B"/>
<path opacity="0.4" d="M20.7541 53.5423C32.2163 53.5423 41.5083 44.4466 41.5083 33.2265C41.5083 27.9847 40.0433 24.3832 36.1504 19.603C34.2738 16.4958 31.0242 9.17022 30.2766 5.02338C29.5441 0.960231 28.0791 -0.0754852 26.6141 0.00418467H23.9283H17.8241H15.1383C11.8176 0.00418467 12.0249 2.22811 11.2316 5.02338C8.78999 13.6277 6.74608 18.4079 5.35788 19.603C2.1975 23.9051 0 27.9847 0 33.2265C0 44.4466 9.29194 53.5423 20.7541 53.5423Z" transform="translate(0 131.726)" fill="#8B8EA1"/>
<path opacity="0.3" d="M9.75716 0C9.26883 10.8351 6.876 32.7443 1.21134 33.7003C-1.71876 34.1949 0.194877 27.0081 12.1988 27.0081C23.9189 27.0081 28.3137 34.6564 23.9188 33.7003C19.2016 32.6742 16.5938 11.7115 15.8613 0" transform="translate(8.06689 131.73)" stroke="white" stroke-width="2"/>
<path opacity="0.45" d="M0 11.6426C3.88085 11.6426 13.1612 9.31405 19.2355 0" transform="translate(148.316 159.958)" stroke="white" stroke-width="3" stroke-linecap="round"/>
<path opacity="0.45" d="M0 7.59298C0.674931 5.90565 1.5186 2.53099 1.0124 0" transform="translate(170.589 146.797)" stroke="white" stroke-width="3" stroke-linecap="round"/>
</svg>
